<?xml version="1.0" encoding="utf-8"?>
<!-- Generator: Adobe Illustrator 28.1.0, SVG Export Plug-In . SVG Version: 6.00 Build 0)  -->
<svg version="1.1" id="Capa_1" xmlns="http://www.w3.org/2000/svg" xmlns:xlink="http://www.w3.org/1999/xlink" x="0px" y="0px"
	 viewBox="0 0 512 512" style="enable-background:new 0 0 512 512;" xml:space="preserve">
<style type="text/css">
	.st0{fill:#FAC312;}
	.st1{fill:#333535;}
</style>
<path class="st0" d="M328.1,421.1h-58.8c-8.3,0-15,6.7-15,15s6.7,15,15,15h58.8c8.3,0,15-6.7,15-15S336.4,421.1,328.1,421.1z"/>
<path class="st1" d="M479.8,77.8c-1.6-4.8-3.5-9.4-5.7-13.9c3.4-7.6,2-16.8-4.3-23l-17.7-17.7c-3.9-3.9-9.1-6-14.6-6
	c-3,0-5.8,0.6-8.4,1.8c-4.5-2.3-9.1-4.2-13.9-5.7c-0.5-1.2-1-2.3-1.7-3.4c-2.1-5.7-7.6-9.8-14.1-9.8H33.9c-8.3,0-15,6.7-15,15v482
	c0,8.3,6.7,15,15,15h365.5c8.3,0,15-6.7,15-15V335.7l0.9,0.5c2.3,1.3,4.9,2,7.5,2c2.6,0,5.2-0.7,7.5-2c4.6-2.7,7.5-7.6,7.5-13V202
	c5.2-0.1,10.3-2.1,14.2-6l17.7-17.7c6.2-6.2,7.6-15.4,4.2-23c2.3-4.5,4.2-9.1,5.7-13.9c7.8-3,13.3-10.5,13.3-19.3v-25
	C493.1,88.3,487.5,80.8,479.8,77.8L479.8,77.8z M463.1,115c-5.1,2.6-9,7.3-10.6,13.1c-1.6,6-4,11.9-7.2,17.3
	c-3,5.2-3.5,11.3-1.7,16.7l-7.6,7.6c-5.4-1.8-11.5-1.3-16.7,1.7c-5.4,3.1-11.2,5.6-17.3,7.2c-5.8,1.5-10.5,5.5-13.1,10.6h-10.8
	c-2.6-5.1-7.3-9-13.1-10.6c-6-1.6-11.9-4-17.3-7.2c-5.2-3-11.3-3.5-16.7-1.7l-7.6-7.6c1.8-5.4,1.3-11.5-1.7-16.7
	c-3.1-5.4-5.6-11.2-7.2-17.3c-1.5-5.8-5.5-10.5-10.6-13.1v-10.8c5.1-2.6,9-7.3,10.6-13.1c1.6-6,4-11.9,7.2-17.3
	c3-5.2,3.5-11.3,1.7-16.7l7.6-7.6c5.4,1.8,11.5,1.3,16.7-1.7c5.4-3.1,11.2-5.6,17.3-7.2c5.8-1.5,10.5-5.5,13.1-10.6h6.4h4.4
	c2.6,5.1,7.3,9,13.1,10.6c6,1.6,11.9,4,17.3,7.2c5.2,3,11.3,3.5,16.7,1.7l7.6,7.6c-1.8,5.4-1.3,11.5,1.7,16.7
	c3.1,5.4,5.6,11.2,7.2,17.3c1.5,5.8,5.5,10.5,10.6,13.1L463.1,115L463.1,115z M48.9,482V30H308l-10.9,10.9c-6.2,6.2-7.6,15.4-4.3,23
	c-2.3,4.5-4.2,9.1-5.7,13.9c-0.9,0.3-1.7,0.7-2.6,1.2H105.3c-8.3,0-15,6.7-15,15s6.7,15,15,15h168.5v13.1c0,7.3,3.8,13.6,9.4,17.3
	h-178c-8.3,0-15,6.7-15,15s6.7,15,15,15h186.6c0.9,3.2,2.7,6.3,5.2,8.9l17.7,17.7c3.9,3.9,9.1,5.9,14.2,6v1.1H105.3
	c-8.3,0-15,6.7-15,15s6.7,15,15,15H329v30.4H105.3c-8.3,0-15,6.7-15,15s6.7,15,15,15H329v29.8c0,5.4,2.9,10.3,7.5,13
	c4.6,2.7,10.4,2.7,15,0l31.9-18.4l1,0.6V482H48.9z M376,287.6l-16.9,9.8v-81.9c3.4,2.4,7.5,3.8,11.9,3.8h25c4.4,0,8.6-1.4,11.9-3.8
	v81.9l-16.9-9.8c-2.3-1.3-4.9-2-7.5-2S378.3,286.2,376,287.6L376,287.6z"/>
<path class="st0" d="M431.2,109.6c0-26.3-21.4-47.8-47.8-47.8s-47.8,21.4-47.8,47.8s21.4,47.8,47.8,47.8S431.2,136,431.2,109.6z
	 M365.7,109.6c0-9.8,8-17.8,17.8-17.8s17.8,8,17.8,17.8s-8,17.8-17.8,17.8S365.7,119.4,365.7,109.6z"/>
</svg>
