<?xml version="1.0" encoding="utf-8"?>
<!-- Generator: Adobe Illustrator 28.1.0, SVG Export Plug-In . SVG Version: 6.00 Build 0)  -->
<svg version="1.1" id="svg2559" xmlns:svg="http://www.w3.org/2000/svg"
	 xmlns="http://www.w3.org/2000/svg" xmlns:xlink="http://www.w3.org/1999/xlink" x="0px" y="0px" viewBox="0 0 682.7 682.7"
	 style="enable-background:new 0 0 682.7 682.7;" xml:space="preserve">
<style type="text/css">
	.st0{clip-path:url(#SVGID_00000085245104561447842240000003420894271502885549_);}
	.st1{fill:none;stroke:#333535;stroke-width:40;stroke-linecap:round;stroke-linejoin:round;stroke-miterlimit:13.3333;}
	.st2{fill:none;stroke:#FAC312;stroke-width:40;stroke-linecap:round;stroke-linejoin:round;stroke-miterlimit:13.3333;}
</style>
<g id="g2565" transform="matrix(1.3333333,0,0,-1.3333333,0,682.66667)">
	<g id="g2567">
		<g>
			<defs>
				<rect id="SVGID_1_" x="-85.3" y="-85.3" width="682.7" height="682.7"/>
			</defs>
			<clipPath id="SVGID_00000114780431525859035740000001677176258074175901_">
				<use xlink:href="#SVGID_1_"  style="overflow:visible;"/>
			</clipPath>
			<g id="g2569" style="clip-path:url(#SVGID_00000114780431525859035740000001677176258074175901_);">
				<g id="g2575" transform="translate(416.6665,223.8662)">
					<path id="path2577" class="st1" d="M0,0c26.6,0,48.2-21.6,48.2-48.2c0-26.6-21.6-48.2-48.2-48.2s-48.2,21.6-48.2,48.2
						C-48.2-21.6-26.6,0,0,0z"/>
				</g>
				<g id="g2579" transform="translate(95.3335,497)">
					<path id="path2581" class="st1" d="M0,0c26.6,0,48.2-21.6,48.2-48.2c0-26.6-21.6-48.2-48.2-48.2s-48.2,21.6-48.2,48.2
						C-48.2-21.6-26.6,0,0,0z"/>
				</g>
				<g id="g2583" transform="translate(497,47.1338)">
					<path id="path2585" class="st1" d="M0,0v-32.1h-160.7V0c0,44.3,36,80.3,80.3,80.3C-36,80.3,0,44.3,0,0z"/>
				</g>
				<g id="g2587" transform="translate(175.6665,320.2666)">
					<path id="path2589" class="st1" d="M0,0v-32.1h-160.7V0c0,44.3,36,80.3,80.3,80.3C-36,80.3,0,44.3,0,0z"/>
				</g>
				<g id="g2591" transform="translate(497,432.7334)">
					<path id="path2593" class="st2" d="M0,0c0,17-6.8,33.4-18.8,45.4c-12.1,12.1-28.4,18.8-45.4,18.8h-112.5
						c-17,0-33.4-6.8-45.4-18.8c-12-12-18.8-28.4-18.8-45.4v0l-40.2-40.2l40.2-40.2v0c0-17,6.8-33.4,18.8-45.4
						c12-12,28.4-18.8,45.4-18.8h112.5c17,0,33.4,6.8,45.4,18.8C-6.8-113.7,0-97.4,0-80.3V0z"/>
				</g>
				<g id="g2595" transform="translate(15,79.2666)">
					<path id="path2597" class="st2" d="M0,0c0-17,6.8-33.4,18.8-45.4c12.1-12.1,28.4-18.8,45.4-18.8h112.5
						C212.2-64.3,241-35.5,241,0l40.2,40.2L241,80.3c0,35.5-28.8,64.3-64.3,64.3H64.3c-17,0-33.4-6.8-45.4-18.8
						C6.8,113.7,0,97.4,0,80.3V0z"/>
				</g>
				<g id="g2599" transform="translate(325.625,427.375)">
					<path id="path2601" class="st2" d="M0,0h101.8"/>
				</g>
				<g id="g2603" transform="translate(127.4668,84.625)">
					<path id="path2605" class="st2" d="M0,0h-42.8"/>
				</g>
				<g id="g2607" transform="translate(325.625,357.7578)">
					<path id="path2609" class="st2" d="M0,0h42.8"/>
				</g>
				<g id="g2611" transform="translate(186.375,154.2422)">
					<path id="path2613" class="st2" d="M0,0h-101.8"/>
				</g>
			</g>
		</g>
	</g>
</g>
</svg>
