<?xml version="1.0" encoding="utf-8"?>
<!-- Generator: Adobe Illustrator 28.1.0, SVG Export Plug-In . SVG Version: 6.00 Build 0)  -->
<svg version="1.1" id="Capa_1" xmlns="http://www.w3.org/2000/svg" xmlns:xlink="http://www.w3.org/1999/xlink" x="0px" y="0px"
	 viewBox="0 0 512 512" style="enable-background:new 0 0 512 512;" xml:space="preserve">
<style type="text/css">
	.st0{fill:#FAC312;}
	.st1{fill:#333535;}
</style>
<rect x="30" y="282.9" class="st0" width="287.5" height="83.5"/>
<rect x="101.5" y="341.8" class="st0" width="127.7" height="83.5"/>
<polygon class="st0" points="151.4,284 17.5,301 17.5,217.5 92.5,217.5 "/>
<g>
	<g>
		<path class="st1" d="M497,166H392V91c0-8.3-6.7-15-15-15s-15,6.7-15,15v165h-33.8l-45.4-153.5C274.4,69.2,244.5,46,210.2,46H105
			c-24.8,0-45,20.2-45,45v105H45c-24.8,0-45,20.2-45,45v165v0c0,33.1,26.9,60,60,60c22.2,0,41.5-12.1,51.9-30h108.1
			c10.4,17.9,29.8,30,51.9,30c33.1,0,60-26.9,60-60v0v-60h30v45c0,24.8,20.2,45,45,45h90c2.1,0,4-0.4,5.8-1.2
			c5.4-2.3,9.2-7.6,9.2-13.8c0-10.5,0-229.5,0-240C512,172.7,505.3,166,497,166z M90,91c0-8.3,6.7-15,15-15h105.2
			c20.7,0,38.6,14,43.7,34.1c0.1,0.2,0.1,0.4,0.2,0.6l35.8,121.1l-62.9-47.1l6.2-12.5c3.7-7.4,0.7-16.4-6.7-20.1
			c-7.4-3.7-16.4-0.7-20.1,6.7l-22.8,45.5c-3.7,7.4-0.7,16.4,6.7,20.1c7.4,3.7,16.4,0.7,20.1-6.7l2.9-5.7l58.7,44H150V151
			c0-8.3-6.7-15-15-15s-15,6.7-15,15v83.8l-30-30V91z M60,436c-16.5,0-30-13.5-30-30s13.5-30,30-30s30,13.5,30,30S76.5,436,60,436z
			 M272,436c-16.5,0-30-13.5-30-30s13.5-30,30-30s30,13.5,30,30S288.5,436,272,436z M302,354.1c-8.8-5.1-19.1-8.1-30-8.1
			c-33.1,0-60,26.9-60,60h-92c0-33.1-26.9-60-60-60c-10.9,0-21.2,2.9-30,8.1V316h45c8.3,0,15-6.7,15-15s-6.7-15-15-15H30v-45
			c0-8.3,6.7-15,15-15h23.8l55.6,55.6c2.7,2.7,6.5,4.4,10.6,4.4h167V354.1z M362,316h-30v-30h30V316z M482,406h-75
			c-8.3,0-15-6.7-15-15v-75h30v15c0,8.3,6.7,15,15,15s15-6.7,15-15v-15h30V406z M482,286h-90v-90h30v15c0,8.3,6.7,15,15,15
			s15-6.7,15-15v-15h30V286z"/>
	</g>
</g>
</svg>
