<?xml version="1.0" encoding="utf-8"?>
<!-- Generator: Adobe Illustrator 28.1.0, SVG Export Plug-In . SVG Version: 6.00 Build 0)  -->
<svg version="1.1" id="Capa_1" xmlns="http://www.w3.org/2000/svg" xmlns:xlink="http://www.w3.org/1999/xlink" x="0px" y="0px"
	 viewBox="0 0 512 512" style="enable-background:new 0 0 512 512;" xml:space="preserve">
<style type="text/css">
	.st0{fill:none;stroke:#333535;stroke-width:30;stroke-linecap:round;stroke-linejoin:round;stroke-miterlimit:10;}
	.st1{fill:#FAC312;stroke:#333535;stroke-width:30;stroke-linecap:round;stroke-linejoin:round;stroke-miterlimit:10;}
</style>
<g>
	<g>
		<g>
			<g>
				<path class="st0" d="M270.9,438.7c-41.1-2.6-79-16.9-110.5-39.7"/>
				<path class="st0" d="M76.4,186.6C95.3,88.8,181.3,15,284.6,15c117.1,0,212,94.9,212,212c0,102.5-72.7,188-169.3,207.7"/>
				<path class="st0" d="M113.3,352.1c-23-31.5-37.6-69.6-40.3-110.9"/>
				<g>
					<path class="st0" d="M474.4,132.5h-35.8c-20.3,0-36.9,16.6-36.9,36.9s16.6,36.9,36.9,36.9h57"/>
					<path class="st0" d="M146,201.9c-2.9-5.3-4.5-11.3-4.5-17.7c0-20.3,16.6-36.9,36.9-36.9h-0.2c20.3,0,36.9-16.6,36.9-36.9
						c0-20.3-16.6-36.9-36.9-36.9h-39.7"/>
				</g>
			</g>
		</g>
	</g>
	<g>
		<g>
			<polyline class="st1" points="226.7,342.3 287.9,475.6 326.1,437.4 292.8,286 			"/>
			<polyline class="st1" points="226.4,219.6 75,186.3 36.8,224.5 169.9,285.6 			"/>
		</g>
		<path class="st1" d="M337.8,212.2l-3.8-33.9l-33.9-3.8c-20.1-2.2-40.1,5.6-53.3,21L96.5,371.7l-33.6-3.2L15.4,416l59.5,21.5
			L96.4,497l47.5-47.5l-3.2-33.6l176.1-150.4C332.2,252.3,340.1,232.4,337.8,212.2z"/>
	</g>
</g>
</svg>
