<?xml version="1.0" encoding="UTF-8"?>
<svg id="Layer_1" data-name="Layer 1" xmlns="http://www.w3.org/2000/svg" viewBox="0 0 512 512">
  <defs>
    <style>
      .cls-1 {
        fill: #00b402;
      }

      .cls-1, .cls-2, .cls-3, .cls-4, .cls-5 {
        stroke-width: 0px;
      }

      .cls-3 {
        fill: #ff9a1f;
      }

      .cls-4 {
        fill: #fff;
      }

      .cls-5 {
        fill: #008c8a;
      }
    </style>
  </defs>
  <g>
    <path class="cls-5" d="M172.89,262.68l-.56,3.09c-.07.37-.4.66-.76.66h-6.74c-1.36,0-2.19.27-2.52,2.22l-.53,3.05h8.6c.33,0,.53.23.53.56v.1l-.53,3.15c-.07.37-.43.66-.8.66h-8.6l-.63,3.52c-.07.33-.1.63-.1.86,0,1.06.56,1.39,1.83,1.39h6.74c.33,0,.56.23.56.56v.1l-.56,3.09c-.07.43-.3.63-.76.7-1.19.17-2.85.43-6.44.43s-7.07-1.23-7.07-5.51c0-.5.07-1.06.17-1.63l1.96-11.02c1.13-6.44,4.81-7.1,9.36-7.1,3.58,0,5.18.27,6.31.43.4.07.6.17.6.46,0,.07-.03.13-.03.2Z"/>
    <path class="cls-5" d="M182.28,275.23l-.43,2.46c-.07.37-.4.6-.76.6h-6.44c-.33,0-.56-.2-.56-.5v-.1l.43-2.46c.07-.37.4-.63.76-.63h6.44c.33,0,.56.2.56.53v.1Z"/>
    <path class="cls-5" d="M205.15,262.52l-.6,3.42c-.07.37-.46.63-.83.63h-5.38l-3.38,19.32c-.07.36-.43.66-.8.66h-4.35c-.33,0-.53-.23-.53-.53v-.13l3.38-19.32h-5.41c-.33,0-.53-.2-.53-.5v-.13l.6-3.42c.07-.37.4-.63.76-.63h16.46c.33,0,.6.23.6.53v.1Z"/>
    <path class="cls-5" d="M218.26,267.93l-.56,3.15c-.07.3-.3.63-.6.63h-.27c-1.63,0-3.15.5-4.48,1.16l-2.29,12.98c-.07.36-.43.7-.8.7h-4.02c-.33,0-.56-.27-.56-.56v-.13l3.12-17.66c.07-.37.4-.66.76-.66h3.95c.33,0,.56.23.56.53v.13l-.13.66c1.63-1.36,2.99-1.59,4.75-1.59.33,0,.56.23.56.56v.1Z"/>
    <path class="cls-5" d="M235.55,268.09c.76.2.96.33.86,1l-2.92,16.79c-.07.36-.23.66-.76.66h-3.38c-.37,0-.63-.23-.56-.66l.13-.96c-1.79,1.39-3.39,1.92-5.14,1.92-3.98,0-5.58-3.05-5.58-6.37,0-.63.07-1.23.17-1.86,0,0,.43-2.49.53-3.12,1-5.77,4.58-8.23,9.79-8.23,2.26,0,4.71.27,6.87.83ZM227.98,271.68c-2.36,0-3.32,1.39-3.78,4.08l-.6,3.49c-.07.37-.1.73-.1,1.09,0,1.1.4,2.02,1.89,2.02,1.13,0,2.42-.53,3.52-1.16l1.63-9.33c-.6-.1-1.63-.2-2.56-.2Z"/>
    <path class="cls-5" d="M256.26,274.8l-1.92,11.05c-.07.36-.46.7-.83.7h-4.02c-.33,0-.53-.27-.53-.56v-.13l1.92-11.05c.1-.56.17-1.06.17-1.46,0-1.23-.8-1.63-1.79-1.63-1.26,0-2.85.63-3.58,1.06l-2.29,13.08c-.07.36-.43.7-.8.7h-4.02c-.33,0-.56-.27-.56-.6v-.1l3.12-17.66c.07-.37.4-.66.76-.66h3.62c.33,0,.56.23.56.56v.1l-.13.8c1.49-1.13,3.42-1.73,5.18-1.73,2.85,0,5.34,1.59,5.34,5.51,0,.63-.07,1.29-.2,2.02Z"/>
    <path class="cls-5" d="M274.87,268.79l-.46,2.69c-.07.37-.3.63-.66.63h-.1c-.93-.13-3.75-.43-5.44-.43h-.13c-.86,0-1.83.03-1.83,1.16,0,.4.27.7.8,1.03l3.68,2.36c2.06,1.33,2.62,2.82,2.62,4.12,0,4.81-3.92,6.5-8.2,6.5-1.83,0-4.28-.27-5.91-.73-.33-.1-.5-.3-.5-.6v-.17l.5-2.69c.07-.4.37-.63.76-.63h.1c1.76.23,4.12.46,5.58.46,1.13,0,2.19-.1,2.19-1.49,0-.43-.27-.86-1-1.33l-3.88-2.49c-1.49-.96-2.16-2.49-2.16-3.95,0-4.65,3.78-5.97,7.77-5.97,2.32,0,4.15.33,5.77.76.33.1.5.3.5.6v.17Z"/>
    <path class="cls-5" d="M294.85,275.76l-.43,2.59c-1.03,6.17-4.51,8.5-9.56,8.5-.93,0-1.92-.1-2.95-.23l-1.03,5.74c-.07.36-.4.66-.76.66h-4.02c-.33,0-.6-.23-.6-.56v-.1l4.12-23.27c.1-.53.26-.76,1.19-.96,1.99-.46,4.65-.86,7.2-.86,4.45,0,7,2.69,7,6.7,0,.56-.07,1.16-.17,1.79ZM287.25,271.71c-1.09,0-2.09.07-2.75.17l-1.83,10.35c.93.13,1.76.2,2.49.2,2.09,0,3.32-.8,3.88-4.08l.43-2.59c.1-.66.17-1.23.17-1.73,0-1.53-.6-2.32-2.39-2.32Z"/>
    <path class="cls-5" d="M315.13,275.89l-.43,2.32c-1.06,5.64-3.95,8.63-9.82,8.63-4.51,0-6.97-2.85-6.97-6.77,0-.6.03-1.23.17-1.86l.43-2.32c1.13-6.01,4.31-8.63,9.82-8.63,4.48,0,7,2.66,7,6.7,0,.63-.13,1.53-.2,1.92ZM307.53,271.84c-1.92,0-3.15,1.13-3.68,4.05l-.43,2.32c-.1.6-.17,1.13-.17,1.59,0,1.73.8,2.49,2.46,2.49,2.16,0,3.15-1.39,3.65-4.08l.43-2.32c.1-.56.17-1.09.17-1.53,0-1.73-.8-2.52-2.42-2.52Z"/>
    <path class="cls-5" d="M331.26,267.93l-.56,3.15c-.07.3-.3.63-.6.63h-.27c-1.63,0-3.15.5-4.48,1.16l-2.29,12.98c-.07.36-.43.7-.8.7h-4.02c-.33,0-.56-.27-.56-.56v-.13l3.12-17.66c.07-.37.4-.66.76-.66h3.95c.33,0,.56.23.56.53v.13l-.13.66c1.63-1.36,2.99-1.59,4.75-1.59.33,0,.56.23.56.56v.1Z"/>
    <path class="cls-5" d="M345.69,268.19l-.5,2.69c-.07.36-.4.66-.76.66h-2.72l-1.73,9.66c-.07.4-.1.7-.1.93,0,.5.23.63.93.63h1.63c.33,0,.6.13.6.46v.1l-.46,2.59c-.07.33-.3.6-.73.66-1.03.17-1.73.27-2.69.27-3.02,0-4.71-1.09-4.71-3.98,0-.5.07-1.06.17-1.69l1.69-9.62-2.59-.43c-.33-.07-.56-.27-.56-.6v-.1l.37-2.19c.07-.37.46-.7.83-.7h2.65l.46-2.72c.07-.36.4-.6.8-.66l4.18-.7h.1c.3,0,.5.17.5.46v.1l-.63,3.52h2.72c.33,0,.56.23.56.56v.1Z"/>
    <path class="cls-5" d="M364.11,268.09c.76.2.96.33.86,1l-2.92,16.79c-.07.36-.23.66-.76.66h-3.38c-.37,0-.63-.23-.56-.66l.13-.96c-1.79,1.39-3.39,1.92-5.14,1.92-3.98,0-5.58-3.05-5.58-6.37,0-.63.07-1.23.17-1.86,0,0,.43-2.49.53-3.12,1-5.77,4.58-8.23,9.79-8.23,2.26,0,4.71.27,6.87.83ZM356.54,271.68c-2.36,0-3.32,1.39-3.78,4.08l-.6,3.49c-.07.37-.1.73-.1,1.09,0,1.1.4,2.02,1.89,2.02,1.13,0,2.42-.53,3.52-1.16l1.63-9.33c-.6-.1-1.63-.2-2.56-.2Z"/>
    <path class="cls-5" d="M380.6,268.19l-.5,2.69c-.07.36-.4.66-.76.66h-2.72l-1.73,9.66c-.07.4-.1.7-.1.93,0,.5.23.63.93.63h1.63c.33,0,.6.13.6.46v.1l-.46,2.59c-.07.33-.3.6-.73.66-1.03.17-1.73.27-2.69.27-3.02,0-4.71-1.09-4.71-3.98,0-.5.07-1.06.17-1.69l1.69-9.62-2.59-.43c-.33-.07-.56-.27-.56-.6v-.1l.37-2.19c.07-.37.46-.7.83-.7h2.65l.46-2.72c.07-.36.4-.6.8-.66l4.18-.7h.1c.3,0,.5.17.5.46v.1l-.63,3.52h2.72c.33,0,.56.23.56.56v.1Z"/>
    <path class="cls-5" d="M390,268.19l-3.12,17.69c-.07.36-.23.66-.8.66h-4.05c-.4,0-.6-.27-.53-.66l3.12-17.69c.07-.37.4-.66.76-.66h4.05c.37,0,.63.2.56.66ZM385.08,264.71l.53-3.09c.07-.37.27-.66.8-.66h4.31c.4,0,.63.17.53.66l-.53,3.09c-.07.36-.27.66-.8.66h-4.31c-.4,0-.6-.27-.53-.66Z"/>
    <path class="cls-5" d="M409.68,275.89l-.43,2.32c-1.06,5.64-3.95,8.63-9.82,8.63-4.51,0-6.97-2.85-6.97-6.77,0-.6.03-1.23.17-1.86l.43-2.32c1.13-6.01,4.31-8.63,9.82-8.63,4.48,0,7,2.66,7,6.7,0,.63-.13,1.53-.2,1.92ZM402.08,271.84c-1.92,0-3.15,1.13-3.68,4.05l-.43,2.32c-.1.6-.17,1.13-.17,1.59,0,1.73.8,2.49,2.46,2.49,2.16,0,3.15-1.39,3.65-4.08l.43-2.32c.1-.56.17-1.09.17-1.53,0-1.73-.8-2.52-2.42-2.52Z"/>
    <path class="cls-5" d="M430.48,274.8l-1.92,11.05c-.07.36-.46.7-.83.7h-4.02c-.33,0-.53-.27-.53-.56v-.13l1.92-11.05c.1-.56.17-1.06.17-1.46,0-1.23-.8-1.63-1.79-1.63-1.26,0-2.85.63-3.58,1.06l-2.29,13.08c-.07.36-.43.7-.8.7h-4.02c-.33,0-.56-.27-.56-.6v-.1l3.12-17.66c.07-.37.4-.66.76-.66h3.62c.33,0,.56.23.56.56v.1l-.13.8c1.49-1.13,3.42-1.73,5.18-1.73,2.85,0,5.34,1.59,5.34,5.51,0,.63-.07,1.29-.2,2.02Z"/>
  </g>
  <g>
    <path class="cls-1" d="M320.83,291.95l-.6,3.35c-.07.37-.3.56-.66.56h-.07c-.93-.07-4.71-.37-6.97-.37-1.59,0-2.95.27-2.95,2.12,0,.7.33,1.03,1.69,1.92l3.85,2.52c2.49,1.63,3.55,3.38,3.55,5.31,0,6.07-4.75,8.5-10.32,8.5-2.62,0-4.65-.3-6.27-.73-.3-.07-.53-.26-.53-.56v-.1l.56-3.25c.07-.4.33-.63.7-.63h.1c1.33.13,4.95.4,6.24.4,1.86,0,3.42-.6,3.42-2.72,0-.73-.4-1.46-1.73-2.32l-4.08-2.69c-2.09-1.36-2.99-3.29-2.99-5.14,0-5.81,4.75-7.5,9.76-7.5,2.42,0,5.71.4,6.9.73.27.07.4.23.4.46v.13Z"/>
    <path class="cls-1" d="M339.51,305.03l-.33,1.92c-.1.5-.4.8-.83.8h-10.65c-.07.5-.13.96-.13,1.36,0,1.73.83,2.32,2.95,2.32s5.08-.2,6.44-.3c.53-.03.7.07.63.53l-.46,2.52c-.1.53-.23.76-.83.9-2.22.53-4.08.8-6.97.8-3.58,0-6.97-2.06-6.97-6.67,0-.56.07-1.19.17-1.86l.4-2.32c1-5.77,4.48-8.73,9.92-8.73,4.48,0,6.84,3.05,6.84,6.94,0,.56-.07,1.19-.17,1.79ZM332.08,300.62c-2.26,0-3.32,1.53-3.82,3.82h6.24c.1-.53.17-1.03.17-1.46,0-1.53-.73-2.36-2.59-2.36Z"/>
    <path class="cls-1" d="M355.67,296.96l-.56,3.15c-.07.3-.3.63-.6.63h-.27c-1.63,0-3.15.5-4.48,1.16l-2.29,12.98c-.07.36-.43.7-.8.7h-4.02c-.33,0-.56-.27-.56-.56v-.13l3.12-17.66c.07-.37.4-.66.76-.66h3.95c.33,0,.56.23.56.53v.13l-.13.66c1.63-1.36,2.99-1.59,4.75-1.59.33,0,.56.23.56.56v.1Z"/>
    <path class="cls-1" d="M375.85,297.33l-6.84,15.07c-1.33,2.95-3.48,3.48-5.44,3.48s-3.85-.53-4.15-3.48l-1.49-15.07v-.07c0-.4.3-.7.63-.7h4.21c.33,0,.53.3.56.7l.56,13.01c.03.5.17.7.4.7s.43-.2.63-.7l5.14-13.01c.17-.4.5-.7.83-.7h4.55c.27,0,.46.2.46.46,0,.1-.03.2-.07.3Z"/>
    <path class="cls-1" d="M384.94,297.23l-3.12,17.69c-.07.36-.23.66-.8.66h-4.05c-.4,0-.6-.27-.53-.66l3.12-17.69c.07-.37.4-.66.76-.66h4.05c.37,0,.63.2.56.66ZM380.03,293.75l.53-3.09c.07-.37.27-.66.8-.66h4.31c.4,0,.63.17.53.66l-.53,3.09c-.07.36-.27.66-.8.66h-4.31c-.4,0-.6-.27-.53-.66Z"/>
    <path class="cls-1" d="M401.6,296.8c.6.17.63.33.56.76l-.53,2.95c-.07.37-.13.63-.8.56-1.26-.13-2.12-.23-4.02-.23-1.63,0-2.82.76-3.38,3.85l-.5,2.79c-.1.63-.17,1.16-.17,1.59,0,1.79.83,2.26,2.22,2.26,1.89,0,2.82-.1,4.08-.23.5-.07.66.2.6.56l-.53,2.95c-.1.5-.3.63-.83.76-.96.23-2.42.5-4.41.5-3.88,0-6.54-2.32-6.54-6.44,0-.63.07-1.26.2-1.96l.5-2.79c1.1-6.21,4.38-8.4,9.19-8.4,1.99,0,3.45.27,4.35.5Z"/>
    <path class="cls-1" d="M420.45,305.03l-.33,1.92c-.1.5-.4.8-.83.8h-10.65c-.07.5-.13.96-.13,1.36,0,1.73.83,2.32,2.95,2.32s5.08-.2,6.44-.3c.53-.03.7.07.63.53l-.46,2.52c-.1.53-.23.76-.83.9-2.22.53-4.08.8-6.97.8-3.58,0-6.97-2.06-6.97-6.67,0-.56.07-1.19.17-1.86l.4-2.32c1-5.77,4.48-8.73,9.92-8.73,4.48,0,6.84,3.05,6.84,6.94,0,.56-.07,1.19-.17,1.79ZM413.02,300.62c-2.26,0-3.32,1.53-3.82,3.82h6.24c.1-.53.17-1.03.17-1.46,0-1.53-.73-2.36-2.59-2.36Z"/>
  </g>
  <path class="cls-3" d="M146.93,332.28s-81.17-34.49-44.06-76.81c0,0,31.54-43.74,123.69-36.68,92.15,7.05,207.62,30.15,243.49,43.94,0,0-62.23-13.56-122.9-23.41-46.38-7.53-91.68-11.41-114.24-12.19-62.66-2.16-125.02,23.56-115.2,65.33,0,0,1.86,18.5,29.22,39.82"/>
  <path class="cls-1" d="M145.3,331.39s-82.3-34.49-44.68-76.81c0,0,31.98-43.74,125.41-36.68,93.43,7.05,207.86,31.04,244.23,44.83,0,0-60.45-14.45-121.96-24.3-47.02-7.53-92.96-11.41-115.82-12.19-63.54-2.16-126.76,23.56-116.8,65.33,0,0,1.88,18.5,29.63,39.82"/>
  <g>
    <g>
      <circle class="cls-2" cx="172.74" cy="233.59" r="14.34"/>
      <circle class="cls-4" cx="172.74" cy="233.59" r="6.56"/>
    </g>
    <g>
      <circle class="cls-2" cx="266.42" cy="233.48" r="14.34"/>
      <circle class="cls-4" cx="266.42" cy="233.48" r="7.65"/>
    </g>
    <g>
      <path class="cls-5" d="M222.26,153.35c0-3.08-2.49-5.57-5.57-5.57h-31.8c-2.3,0-4.36,1.41-5.19,3.55l-15.68,40.27c-.4.97-1.04,2.67-1.57,4.47h-9.17c-2.64,0-4.81,2.16-4.81,4.81v26.75c0,2.4,3.13,4.27,5.43,4.62,1.05-10.18,8.3-18,18.76-18s20.3,7.86,20.12,18.18h24.66c2.64,0,4.81-2.16,4.81-4.81v-26.75c0-.84-.22-1.63-.6-2.31.38-.75.6-1.6.6-2.5v-42.7ZM176.59,191.41l10.15-33.94c.46-1.53,1.87-2.59,3.47-2.59h20.79c2,0,3.62,1.62,3.62,3.62v33.69c0,1.99-1.61,3.61-3.6,3.62l-29.28.23h-1.92c-2.3-.14-3.92-2.4-3.25-4.65Z"/>
      <path class="cls-1" d="M340.85,147.85v-.07h-107.04c-2.64,0-4.81,2.16-4.81,4.81v75.03c0,2.64,2.16,4.81,4.81,4.81h12.59c.51-10.45,9.14-18.76,19.71-18.76s19.21,8.32,19.71,18.76h23.02c2.64,0,4.81-2.16,4.81-4.81v-13.48h2.33c2.26,0,4.1-1.85,4.1-4.1v-1.42c0-2.26-1.85-4.1-4.1-4.1h-2.33v-.03h-16.93c-1.2,0-2.17-.97-2.17-2.17h0c0-1.2.97-2.17,2.17-2.17h12.46c.19.02.38.04.57.04h14.49c2.55,0,4.62-2.07,4.62-4.62s-2.07-4.62-4.62-4.62h-41.23c-1.2,0-2.17-.97-2.17-2.17s.97-2.17,2.17-2.17h30.65c1.38-.66,2.34-2.07,2.34-3.7s-.97-3.04-2.35-3.7v-.38h-42.94c-2.12,0-3.85-1.72-3.85-3.85s1.72-3.85,3.85-3.85h42.94v-.12h16.22c2.26,0,4.1-1.85,4.1-4.1h0c0-1.66-1-3.09-2.42-3.74h-74.55c-2.16,0-3.92-1.75-3.92-3.92,0-1.43.77-2.68,1.91-3.36h85.84c1.91-.35,3.37-2.03,3.37-4.03s-1.46-3.69-3.37-4.03Z"/>
    </g>
  </g>
</svg>