<?xml version="1.0" encoding="UTF-8"?>
<svg id="Layer_1" data-name="Layer 1" xmlns="http://www.w3.org/2000/svg" viewBox="0 0 170 42">
  <defs>
    <style>
      .cls-1 {
        fill: #00b402;
      }

      .cls-1, .cls-2, .cls-3, .cls-4, .cls-5 {
        stroke-width: 0px;
      }

      .cls-3 {
        fill: #ff9a1f;
      }

      .cls-4 {
        fill: #fff;
      }

      .cls-5 {
        fill: #008c8a;
      }
    </style>
  </defs>
  <g>
    <path class="cls-5" d="M70.72,11.55l-.21,1.13c-.03.14-.15.24-.28.24h-2.47c-.5,0-.8.1-.92.81l-.19,1.12h3.16c.12,0,.19.08.19.21v.04l-.19,1.16c-.03.14-.16.24-.29.24h-3.16l-.23,1.29c-.03.12-.04.23-.04.32,0,.39.21.51.67.51h2.47c.12,0,.21.08.21.21v.04l-.21,1.13c-.03.16-.11.23-.28.26-.44.06-1.05.16-2.36.16s-2.59-.45-2.59-2.02c0-.18.03-.39.06-.6l.72-4.04c.41-2.36,1.77-2.61,3.44-2.61,1.31,0,1.9.1,2.32.16.15.03.22.06.22.17,0,.03-.01.05-.01.07h-.01Z"/>
    <path class="cls-5" d="M74.17,16.16l-.16.9c-.03.14-.15.22-.28.22h-2.36c-.12,0-.21-.07-.21-.18v-.04l.16-.9c.03-.14.15-.23.28-.23h2.36c.12,0,.21.07.21.19v.04Z"/>
    <path class="cls-5" d="M82.56,11.49l-.22,1.26c-.03.14-.17.23-.3.23h-1.97l-1.24,7.09c-.03.13-.16.24-.29.24h-1.6c-.12,0-.19-.08-.19-.19v-.05l1.24-7.09h-1.99c-.12,0-.19-.07-.19-.18v-.05l.22-1.26c.03-.14.15-.23.28-.23h6.04c.12,0,.22.08.22.19v.04h0Z"/>
    <path class="cls-5" d="M87.37,13.48l-.21,1.16c-.03.11-.11.23-.22.23h-.1c-.6,0-1.16.18-1.64.43l-.84,4.76c-.03.13-.16.26-.29.26h-1.48c-.12,0-.21-.1-.21-.21v-.05l1.15-6.48c.03-.14.15-.24.28-.24h1.45c.12,0,.21.08.21.19v.05l-.05.24c.6-.5,1.1-.58,1.74-.58.12,0,.21.08.21.21v.04h0Z"/>
    <path class="cls-5" d="M93.72,13.54c.28.07.35.12.32.37l-1.07,6.16c-.03.13-.08.24-.28.24h-1.24c-.14,0-.23-.08-.21-.24l.05-.35c-.66.51-1.24.7-1.89.7-1.46,0-2.05-1.12-2.05-2.34,0-.23.03-.45.06-.68,0,0,.16-.91.19-1.15.37-2.12,1.68-3.02,3.59-3.02.83,0,1.73.1,2.52.3h0ZM90.94,14.86c-.87,0-1.22.51-1.39,1.5l-.22,1.28c-.03.14-.04.27-.04.4,0,.4.15.74.69.74.41,0,.89-.19,1.29-.43l.6-3.42c-.22-.04-.6-.07-.94-.07h0Z"/>
    <path class="cls-5" d="M101.32,16l-.7,4.06c-.03.13-.17.26-.3.26h-1.48c-.12,0-.19-.1-.19-.21v-.05l.7-4.06c.04-.21.06-.39.06-.54,0-.45-.29-.6-.66-.6-.46,0-1.05.23-1.31.39l-.84,4.8c-.03.13-.16.26-.29.26h-1.48c-.12,0-.21-.1-.21-.22v-.04l1.15-6.48c.03-.14.15-.24.28-.24h1.33c.12,0,.21.08.21.21v.04l-.05.29c.55-.41,1.26-.63,1.9-.63,1.05,0,1.96.58,1.96,2.02,0,.23-.03.47-.07.74h0Z"/>
    <path class="cls-5" d="M108.15,13.8l-.17.99c-.03.14-.11.23-.24.23h-.04c-.34-.05-1.38-.16-2-.16h-.05c-.32,0-.67.01-.67.43,0,.15.1.26.29.38l1.35.87c.76.49.96,1.04.96,1.51,0,1.77-1.44,2.39-3.01,2.39-.67,0-1.57-.1-2.17-.27-.12-.04-.18-.11-.18-.22v-.06l.18-.99c.03-.15.14-.23.28-.23h.04c.65.08,1.51.17,2.05.17.41,0,.8-.04.8-.55,0-.16-.1-.32-.37-.49l-1.42-.91c-.55-.35-.79-.91-.79-1.45,0-1.71,1.39-2.19,2.85-2.19.85,0,1.52.12,2.12.28.12.04.18.11.18.22v.06h0Z"/>
    <path class="cls-5" d="M115.48,16.35l-.16.95c-.38,2.26-1.66,3.12-3.51,3.12-.34,0-.7-.04-1.08-.08l-.38,2.11c-.03.13-.15.24-.28.24h-1.48c-.12,0-.22-.08-.22-.21v-.04l1.51-8.54c.04-.19.1-.28.44-.35.73-.17,1.71-.32,2.64-.32,1.63,0,2.57.99,2.57,2.46,0,.21-.03.43-.06.66h0ZM112.7,14.87c-.4,0-.77.03-1.01.06l-.67,3.8c.34.05.65.07.91.07.77,0,1.22-.29,1.42-1.5l.16-.95c.04-.24.06-.45.06-.63,0-.56-.22-.85-.88-.85h0Z"/>
    <path class="cls-5" d="M122.93,16.4l-.16.85c-.39,2.07-1.45,3.17-3.6,3.17-1.66,0-2.56-1.05-2.56-2.48,0-.22.01-.45.06-.68l.16-.85c.41-2.21,1.58-3.17,3.6-3.17,1.64,0,2.57.98,2.57,2.46,0,.23-.05.56-.07.7h0ZM120.14,14.91c-.7,0-1.16.41-1.35,1.49l-.16.85c-.04.22-.06.41-.06.58,0,.63.29.91.9.91.79,0,1.16-.51,1.34-1.5l.16-.85c.04-.21.06-.4.06-.56,0-.63-.29-.92-.89-.92h0Z"/>
    <path class="cls-5" d="M128.85,13.48l-.21,1.16c-.03.11-.11.23-.22.23h-.1c-.6,0-1.16.18-1.64.43l-.84,4.76c-.03.13-.16.26-.29.26h-1.48c-.12,0-.21-.1-.21-.21v-.05l1.15-6.48c.03-.14.15-.24.28-.24h1.45c.12,0,.21.08.21.19v.05l-.05.24c.6-.5,1.1-.58,1.74-.58.12,0,.21.08.21.21v.04h0Z"/>
    <path class="cls-5" d="M134.14,13.57l-.18.99c-.03.13-.15.24-.28.24h-1l-.63,3.55c-.03.15-.04.26-.04.34,0,.18.08.23.34.23h.6c.12,0,.22.05.22.17v.04l-.17.95c-.03.12-.11.22-.27.24-.38.06-.63.1-.99.1-1.11,0-1.73-.4-1.73-1.46,0-.18.03-.39.06-.62l.62-3.53-.95-.16c-.12-.03-.21-.1-.21-.22v-.04l.14-.8c.03-.14.17-.26.3-.26h.97l.17-1c.03-.13.15-.22.29-.24l1.53-.26h.04c.11,0,.18.06.18.17v.04l-.23,1.29h1c.12,0,.21.08.21.21v.04h0Z"/>
    <path class="cls-5" d="M140.91,13.54c.28.07.35.12.32.37l-1.07,6.16c-.03.13-.08.24-.28.24h-1.24c-.14,0-.23-.08-.21-.24l.05-.35c-.66.51-1.24.7-1.89.7-1.46,0-2.05-1.12-2.05-2.34,0-.23.03-.45.06-.68,0,0,.16-.91.19-1.15.37-2.12,1.68-3.02,3.59-3.02.83,0,1.73.1,2.52.3h0ZM138.13,14.86c-.87,0-1.22.51-1.39,1.5l-.22,1.28c-.03.14-.04.27-.04.4,0,.4.15.74.69.74.41,0,.89-.19,1.29-.43l.6-3.42c-.22-.04-.6-.07-.94-.07h0Z"/>
    <path class="cls-5" d="M146.96,13.57l-.18.99c-.03.13-.15.24-.28.24h-1l-.63,3.55c-.03.15-.04.26-.04.34,0,.18.08.23.34.23h.6c.12,0,.22.05.22.17v.04l-.17.95c-.03.12-.11.22-.27.24-.38.06-.63.1-.99.1-1.11,0-1.73-.4-1.73-1.46,0-.18.03-.39.06-.62l.62-3.53-.95-.16c-.12-.03-.21-.1-.21-.22v-.04l.14-.8c.03-.14.17-.26.3-.26h.97l.17-1c.03-.13.15-.22.29-.24l1.53-.26h.04c.11,0,.18.06.18.17v.04l-.23,1.29h1c.12,0,.21.08.21.21v.04h0Z"/>
    <path class="cls-5" d="M150.41,13.57l-1.15,6.49c-.03.13-.08.24-.29.24h-1.49c-.15,0-.22-.1-.19-.24l1.15-6.49c.03-.14.15-.24.28-.24h1.49c.14,0,.23.07.21.24h0ZM148.6,12.3l.19-1.13c.03-.14.1-.24.29-.24h1.58c.15,0,.23.06.19.24l-.19,1.13c-.03.13-.1.24-.29.24h-1.58c-.15,0-.22-.1-.19-.24Z"/>
    <path class="cls-5" d="M157.63,16.4l-.16.85c-.39,2.07-1.45,3.17-3.6,3.17-1.66,0-2.56-1.05-2.56-2.48,0-.22.01-.45.06-.68l.16-.85c.41-2.21,1.58-3.17,3.6-3.17,1.64,0,2.57.98,2.57,2.46,0,.23-.05.56-.07.7h0ZM154.84,14.91c-.7,0-1.16.41-1.35,1.49l-.16.85c-.04.22-.06.41-.06.58,0,.63.29.91.9.91.79,0,1.16-.51,1.34-1.5l.16-.85c.04-.21.06-.4.06-.56,0-.63-.29-.92-.89-.92h0Z"/>
    <path class="cls-5" d="M165.26,16l-.7,4.06c-.03.13-.17.26-.3.26h-1.48c-.12,0-.19-.1-.19-.21v-.05l.7-4.06c.04-.21.06-.39.06-.54,0-.45-.29-.6-.66-.6-.46,0-1.05.23-1.31.39l-.84,4.8c-.03.13-.16.26-.29.26h-1.48c-.12,0-.21-.1-.21-.22v-.04l1.15-6.48c.03-.14.15-.24.28-.24h1.33c.12,0,.21.08.21.21v.04l-.05.29c.55-.41,1.26-.63,1.9-.63,1.05,0,1.96.58,1.96,2.02,0,.23-.03.47-.07.74h0Z"/>
  </g>
  <g>
    <path class="cls-1" d="M125.02,22.3l-.22,1.23c-.03.14-.11.21-.24.21h-.03c-.34-.03-1.73-.14-2.56-.14-.58,0-1.08.1-1.08.78,0,.26.12.38.62.7l1.41.92c.91.6,1.3,1.24,1.3,1.95,0,2.23-1.74,3.12-3.79,3.12-.96,0-1.71-.11-2.3-.27-.11-.03-.19-.1-.19-.21v-.04l.21-1.19c.03-.15.12-.23.26-.23h.04c.49.05,1.82.15,2.29.15.68,0,1.26-.22,1.26-1,0-.27-.15-.54-.63-.85l-1.5-.99c-.77-.5-1.1-1.21-1.1-1.89,0-2.13,1.74-2.75,3.58-2.75.89,0,2.1.15,2.53.27.1.03.15.08.15.17v.05h0Z"/>
    <path class="cls-1" d="M131.88,27.1l-.12.7c-.04.18-.15.29-.3.29h-3.91c-.03.18-.05.35-.05.5,0,.63.3.85,1.08.85s1.86-.07,2.36-.11c.19-.01.26.03.23.19l-.17.92c-.04.19-.08.28-.3.33-.81.19-1.5.29-2.56.29-1.31,0-2.56-.76-2.56-2.45,0-.21.03-.44.06-.68l.15-.85c.37-2.12,1.64-3.2,3.64-3.2,1.64,0,2.51,1.12,2.51,2.55,0,.21-.03.44-.06.66h0ZM129.15,25.48c-.83,0-1.22.56-1.4,1.4h2.29c.04-.19.06-.38.06-.54,0-.56-.27-.87-.95-.87h0Z"/>
    <path class="cls-1" d="M137.81,24.13l-.21,1.16c-.03.11-.11.23-.22.23h-.1c-.6,0-1.16.18-1.64.43l-.84,4.76c-.03.13-.16.26-.29.26h-1.48c-.12,0-.21-.1-.21-.21v-.05l1.15-6.48c.03-.14.15-.24.28-.24h1.45c.12,0,.21.08.21.19v.05l-.05.24c.6-.5,1.1-.58,1.74-.58.12,0,.21.08.21.21v.04h0Z"/>
    <path class="cls-1" d="M145.21,24.27l-2.51,5.53c-.49,1.08-1.28,1.28-2,1.28s-1.41-.19-1.52-1.28l-.55-5.53v-.03c0-.15.11-.26.23-.26h1.55c.12,0,.19.11.21.26l.21,4.78c.01.18.06.26.15.26s.16-.07.23-.26l1.89-4.78c.06-.15.18-.26.3-.26h1.67c.1,0,.17.07.17.17,0,.04-.01.07-.03.11h0Z"/>
    <path class="cls-1" d="M148.55,24.23l-1.15,6.49c-.03.13-.08.24-.29.24h-1.49c-.15,0-.22-.1-.19-.24l1.15-6.49c.03-.14.15-.24.28-.24h1.49c.14,0,.23.07.21.24h0ZM146.75,22.96l.19-1.13c.03-.14.1-.24.29-.24h1.58c.15,0,.23.06.19.24l-.19,1.13c-.03.13-.1.24-.29.24h-1.58c-.15,0-.22-.1-.19-.24Z"/>
    <path class="cls-1" d="M154.67,24.08c.22.06.23.12.21.28l-.19,1.08c-.03.14-.05.23-.29.21-.46-.05-.78-.08-1.48-.08-.6,0-1.04.28-1.24,1.41l-.18,1.02c-.04.23-.06.43-.06.58,0,.66.3.83.81.83.69,0,1.04-.04,1.5-.08.18-.03.24.07.22.21l-.19,1.08c-.04.18-.11.23-.3.28-.35.08-.89.18-1.62.18-1.42,0-2.4-.85-2.4-2.36,0-.23.03-.46.07-.72l.18-1.02c.4-2.28,1.61-3.08,3.37-3.08.73,0,1.27.1,1.6.18h0Z"/>
    <path class="cls-1" d="M161.58,27.1l-.12.7c-.04.18-.15.29-.3.29h-3.91c-.03.18-.05.35-.05.5,0,.63.3.85,1.08.85s1.86-.07,2.36-.11c.19-.01.26.03.23.19l-.17.92c-.04.19-.08.28-.3.33-.81.19-1.5.29-2.56.29-1.31,0-2.56-.76-2.56-2.45,0-.21.03-.44.06-.68l.15-.85c.37-2.12,1.64-3.2,3.64-3.2,1.64,0,2.51,1.12,2.51,2.55,0,.21-.03.44-.06.66h0ZM158.86,25.48c-.83,0-1.22.56-1.4,1.4h2.29c.04-.19.06-.38.06-.54,0-.56-.27-.87-.95-.87h0Z"/>
  </g>
  <g>
    <path class="cls-3" d="M15.53,40.45S-.5,33.64,6.83,25.28c0,0,6.23-8.64,24.43-7.25,18.2,1.39,41.01,5.96,48.1,8.68,0,0-12.29-2.68-24.28-4.62-9.16-1.49-18.11-2.25-22.57-2.41-12.38-.43-24.7,4.65-22.76,12.9,0,0,.37,3.65,5.77,7.87"/>
    <path class="cls-1" d="M15.21,40.28S-1.05,33.47,6.38,25.11c0,0,6.32-8.64,24.77-7.25,18.46,1.39,41.06,6.13,48.24,8.86,0,0-11.94-2.85-24.09-4.8-9.29-1.49-18.36-2.25-22.88-2.41-12.55-.43-25.04,4.65-23.07,12.9,0,0,.37,3.65,5.85,7.87"/>
    <g>
      <g>
        <circle class="cls-2" cx="20.63" cy="20.96" r="2.83"/>
        <circle class="cls-4" cx="20.63" cy="20.96" r="1.3"/>
      </g>
      <g>
        <circle class="cls-2" cx="39.13" cy="20.94" r="2.83"/>
        <circle class="cls-4" cx="39.13" cy="20.94" r="1.51"/>
      </g>
      <g>
        <path class="cls-5" d="M30.41,5.11c0-.61-.49-1.1-1.1-1.1h-6.28c-.45,0-.86.28-1.03.7l-3.1,7.95c-.08.19-.21.53-.31.88h-1.81c-.52,0-.95.43-.95.95v5.28c0,.47.62.84,1.07.91.21-2.01,1.64-3.56,3.71-3.56s4.01,1.55,3.97,3.59h4.87c.52,0,.95-.43.95-.95v-5.28c0-.17-.04-.32-.12-.46.08-.15.12-.32.12-.49V5.11h0ZM21.39,12.63l2-6.7c.09-.3.37-.51.69-.51h4.11c.4,0,.72.32.72.72v6.65c0,.39-.32.71-.71.72l-5.78.05h-.38c-.45-.03-.77-.47-.64-.92h0Z"/>
        <path class="cls-1" d="M53.84,4.02h0s-21.14-.01-21.14-.01c-.52,0-.95.43-.95.95v14.82c0,.52.43.95.95.95h2.49c.1-2.06,1.81-3.71,3.89-3.71s3.79,1.64,3.89,3.71h4.55c.52,0,.95-.43.95-.95v-2.66h.46c.45,0,.81-.37.81-.81v-.28c0-.45-.37-.81-.81-.81h-.46s-3.34,0-3.34,0c-.24,0-.43-.19-.43-.43h0c0-.24.19-.43.43-.43h2.46s.08,0,.11,0h2.86c.5,0,.91-.41.91-.91s-.41-.91-.91-.91h-8.14c-.24,0-.43-.19-.43-.43s.19-.43.43-.43h6.05c.27-.13.46-.41.46-.73s-.19-.6-.46-.73v-.08h-8.48c-.42,0-.76-.34-.76-.76s.34-.76.76-.76h8.48v-.02h3.2c.45,0,.81-.37.81-.81h0c0-.33-.2-.61-.48-.74h-14.73c-.43,0-.77-.35-.77-.77,0-.28.15-.53.38-.66h16.96c.38-.07.67-.4.67-.8s-.29-.73-.67-.8h0Z"/>
      </g>
    </g>
  </g>
</svg>