<?xml version="1.0" encoding="utf-8"?>
<!-- Generator: Adobe Illustrator 28.1.0, SVG Export Plug-In . SVG Version: 6.00 Build 0)  -->
<svg version="1.1" id="Capa_1" xmlns="http://www.w3.org/2000/svg" xmlns:xlink="http://www.w3.org/1999/xlink" x="0px" y="0px"
	 viewBox="0 0 512 512" style="enable-background:new 0 0 512 512;" xml:space="preserve">
<style type="text/css">
	.st0{fill:#FAC312;}
	.st1{fill:#FFFFFF;}
</style>
<path class="st0" d="M225.5,227.1c2.9,3.9,7.4,6,12,6c1.9,0,3.8-0.4,5.6-1.1c4.1-1.7,8.4-2.5,12.9-2.5c4.4,0,8.8,0.8,12.9,2.5
	c6.3,2.6,13.6,0.5,17.6-4.9L321,181c2.6-3.4,3.5-7.8,2.7-12s-3.5-7.8-7.2-10c-18.3-10.6-39.2-16.2-60.5-16.2s-42.2,5.6-60.5,16.2
	c-3.7,2.1-6.3,5.8-7.2,10c-0.9,4.2,0.1,8.6,2.7,12L225.5,227.1z M256,172.8c10.2,0,20.3,1.7,29.9,5l-17.1,22.9
	c-8.4-1.7-17.1-1.7-25.5,0l-17.1-22.9C235.7,174.5,245.8,172.8,256,172.8z"/>
<path class="st0" d="M290.1,269c-1.2,8.9-5.8,16.8-12.9,22.4c-5.4,4.2-7.2,11.4-4.6,17.7l22.6,53c1.7,4,5,7,9.1,8.4
	c1.5,0.5,3.1,0.8,4.7,0.8c2.6,0,5.2-0.7,7.5-2c37.6-21.8,60.9-62,60.9-105c0-4.3-1.8-8.4-5-11.2c-3.2-2.8-7.5-4.2-11.7-3.7
	l-57.5,6.9C296.5,257,291.1,262.2,290.1,269L290.1,269z M317.2,284.7l28.7-3.4c-3.9,20.1-14.6,38.4-30.3,51.9l-11.2-26.3
	C310.1,300.4,314.4,292.9,317.2,284.7z"/>
<path class="st0" d="M195.4,369.1c2.3,1.3,4.9,2,7.5,2c1.6,0,3.2-0.3,4.7-0.8c4.1-1.4,7.4-4.4,9.1-8.4l22.6-53
	c2.7-6.3,0.8-13.5-4.6-17.7c-7.1-5.5-11.7-13.5-12.9-22.4c-0.9-6.8-6.3-12-13.1-12.8l-57.5-6.9c-4.3-0.5-8.5,0.8-11.7,3.7
	s-5,6.9-5,11.2C134.5,307.1,157.9,347.4,195.4,369.1L195.4,369.1z M194.8,284.7c2.7,8.2,7.1,15.7,12.8,22.2l-11.2,26.3
	c-15.6-13.5-26.3-31.9-30.3-51.9L194.8,284.7z"/>
<path class="st1" d="M442.5,84.8c8.3,0,15-6.7,15-15s-6.7-15-15-15h-5V30h5c8.3,0,15-6.7,15-15s-6.7-15-15-15h-373
	c-8.3,0-15,6.7-15,15s6.7,15,15,15h5v24.8h-5c-8.3,0-15,6.7-15,15s6.7,15,15,15h5V427h-5c-8.3,0-15,6.7-15,15s6.7,15,15,15h5v25h-5
	c-8.3,0-15,6.7-15,15s6.7,15,15,15h373c8.3,0,15-6.7,15-15s-6.7-15-15-15h-5v-25h5c8.3,0,15-6.7,15-15s-6.7-15-15-15h-5V84.8
	L442.5,84.8z M104.5,30h303.1v24.8H104.5V30z M407.5,482H104.5v-25h303.1V482z M407.5,427H104.5V84.8h303.1V427z"/>
<path class="st0" d="M256,243c-8.3,0-15,6.7-15,15v13.5c0,8.3,6.7,15,15,15s15-6.7,15-15V258C271,249.7,264.3,243,256,243z"/>
</svg>
