<?xml version="1.0" encoding="utf-8"?>
<!-- Generator: Adobe Illustrator 28.1.0, SVG Export Plug-In . SVG Version: 6.00 Build 0)  -->
<svg version="1.1" id="Capa_1" xmlns="http://www.w3.org/2000/svg" xmlns:xlink="http://www.w3.org/1999/xlink" x="0px" y="0px"
	 viewBox="0 0 512 512" style="enable-background:new 0 0 512 512;" xml:space="preserve">
<style type="text/css">
	.st0{fill:#FFFFFF;}
	.st1{fill:#FAC312;}
</style>
<g>
	<g>
		<path class="st0" d="M512,104.8c0-3-1-5.8-2.5-8.1l0,0c0,0,0,0,0,0l-51-76.6C450,7.5,436,0,420.9,0H316h-60H151.1
			C136,0,122,7.5,113.6,20l-51,76.6c0,0,0,0,0,0l0,0C61,99,60,101.8,60,104.8c0,0.1,0,0.1,0,0.2v139c-4.1-1.3-8.5-2-13.1-2h-3.9
			C19.3,242,0,261.3,0,285.1v153.9C0,462.7,19.3,482,43.1,482h3.9c19.2,0,35.5-12.6,41-30h40.8l55.4,55.4l0.3,0.3
			c2.8,2.8,6.6,4.3,10.5,4.3h90h62h0c0,0,0,0,0,0c24.8,0,45-20.2,45-45c0-5.3-0.9-10.3-2.6-15H467c24.8,0,45-20.2,45-45V105
			C512,104.9,512,104.9,512,104.8z M60,287v150v1.9c0,7.2-5.9,13.1-13.1,13.1h-3.9c-7.2,0-13.1-5.9-13.1-13.1V285.1
			c0-7.2,5.9-13.1,13.1-13.1h3.9c7.2,0,13.1,5.9,13.1,13.1V287z M420.9,30c5,0,9.7,2.5,12.5,6.7L469,90H356.8l-20-60H420.9z
			 M266.8,30h38.4l20,60h-78.4L266.8,30z M241,120h90v99.8l-34.4-34.4c-2.9-2.9-6.8-4.4-10.6-4.4s-7.7,1.5-10.6,4.4L241,219.8V120z
			 M138.6,36.7c2.8-4.2,7.5-6.7,12.5-6.7h84.1l-20,60H103L138.6,36.7z M347,482h-62v0h-83.8l-55.6-55.6c0,0,0,0,0,0
			c-2.8-2.8-6.6-4.4-10.6-4.4H90V302l37.7,0c0,0,0,0,0,0c20,0,38.9,7.8,53,22l72.4,72.4c5.8,5.8,5.8,15.4,0,21.2
			c-2.8,2.8-6.6,4.4-10.6,4.4c-4,0-7.8-1.6-10.6-4.4l-56.4-56.4c-5.9-5.9-15.4-5.9-21.2,0s-5.9,15.4,0,21.2l56.4,56.4
			c8.5,8.5,19.8,13.2,31.8,13.2c0,0,0,0,0,0H347c8.3,0,15,6.7,15,15S355.3,482,347,482z M482,407L482,407c0,8.3-6.7,15-15,15H285
			c5.6-15.8,2-34.2-10.6-46.8L202,302.7c-19.8-19.8-46.2-29.6-74.2-29.6c0,0,0,0,0,0l-37.7,0V120h121v136c0,6.1,3.7,11.5,9.3,13.9
			c5.6,2.3,12.1,1,16.3-3.3l49.4-49.4l49.4,49.4c4.3,4.3,10.8,5.6,16.3,3.3c5.6-2.3,9.3-7.8,9.3-13.9V120h121L482,407L482,407z"/>
	</g>
</g>
<g>
	<g>
		<path class="st1" d="M437.2,361h-90c-8.3,0-15,6.7-15,15s6.7,15,15,15h90c8.3,0,15-6.7,15-15S445.4,361,437.2,361z"/>
	</g>
</g>
<g>
	<g>
		<path class="st1" d="M437.2,301h-30c-8.3,0-15,6.7-15,15s6.7,15,15,15h30c8.3,0,15-6.7,15-15S445.4,301,437.2,301z"/>
	</g>
</g>
<g>
	<g>
		<circle class="st1" cx="347.2" cy="316" r="15"/>
	</g>
</g>
</svg>
