<?xml version="1.0" encoding="utf-8"?>
<!-- Generator: Adobe Illustrator 28.1.0, SVG Export Plug-In . SVG Version: 6.00 Build 0)  -->
<svg version="1.1" id="svg2844" xmlns:svg="http://www.w3.org/2000/svg"
	 xmlns="http://www.w3.org/2000/svg" xmlns:xlink="http://www.w3.org/1999/xlink" x="0px" y="0px" viewBox="0 0 682.7 682.7"
	 style="enable-background:new 0 0 682.7 682.7;" xml:space="preserve">
<style type="text/css">
	.st0{clip-path:url(#SVGID_00000005245336942385504160000000394985165856673927_);}
	.st1{fill:none;stroke:#FFFFFF;stroke-width:40;stroke-linecap:round;stroke-linejoin:round;stroke-miterlimit:13.3333;}
	.st2{fill:none;stroke:#FAC312;stroke-width:40;stroke-linecap:round;stroke-linejoin:round;stroke-miterlimit:5.3333;}
</style>
<g id="g2850" transform="matrix(1.3333333,0,0,-1.3333333,0,682.66667)">
	<g id="g2852">
		<g>
			<defs>
				<rect id="SVGID_1_" x="-85.3" y="-85.3" width="682.7" height="682.7"/>
			</defs>
			<clipPath id="SVGID_00000047019152101107557660000005851910430615676311_">
				<use xlink:href="#SVGID_1_"  style="overflow:visible;"/>
			</clipPath>
			<g id="g2854" style="clip-path:url(#SVGID_00000047019152101107557660000005851910430615676311_);">
				<g id="g2860" transform="translate(65,116)">
					<path id="path2862" class="st1" d="M0,0h-50v260l60,60h342v-60H252V0h-92"/>
				</g>
				<g id="g2864" transform="translate(447,116)">
					<path id="path2866" class="st1" d="M0,0h50v80c0,11-9,20-20,20H20l-23.6,78.6C-7.4,191.3-19.1,200-32.3,200H-130V0h50"/>
				</g>
				<g id="g2868" transform="translate(65,116)">
					<path id="path2870" class="st1" d="M0,0c0,22.1,17.9,40,40,40S80,22.1,80,0S62.1-40,40-40S0-22.1,0,0z"/>
				</g>
				<g id="g2872" transform="translate(145,116)">
					<path id="path2874" class="st1" d="M0,0c0,22.1,17.9,40,40,40S80,22.1,80,0S62.1-40,40-40S0-22.1,0,0z"/>
				</g>
				<g id="g2876" transform="translate(367,116)">
					<path id="path2878" class="st1" d="M0,0c0,22.1,17.9,40,40,40S80,22.1,80,0S62.1-40,40-40S0-22.1,0,0z"/>
				</g>
				<g id="g2880" transform="translate(467,216)">
					<path id="path2882" class="st1" d="M0,0h-60c-16.6,0-30,13.4-30,30v70"/>
				</g>
				<g id="g2884" transform="translate(195.4155,323.7051)">
					<path id="path2886" class="st2" d="M0,0l-29.4,52.3L-58.8,0"/>
				</g>
				<g id="g2888" transform="translate(105.4155,268.2949)">
					<path id="path2890" class="st2" d="M0,0l-29.4-52.3h60"/>
				</g>
				<g id="g2892" transform="translate(196,216)">
					<path id="path2894" class="st2" d="M0,0h60L30.6,52.3"/>
				</g>
			</g>
		</g>
	</g>
</g>
</svg>
