<?xml version="1.0" encoding="utf-8"?>
<!-- Generator: Adobe Illustrator 28.1.0, SVG Export Plug-In . SVG Version: 6.00 Build 0)  -->
<svg version="1.1" id="svg684" xmlns:svg="http://www.w3.org/2000/svg"
	 xmlns="http://www.w3.org/2000/svg" xmlns:xlink="http://www.w3.org/1999/xlink" x="0px" y="0px" viewBox="0 0 682.7 682.7"
	 style="enable-background:new 0 0 682.7 682.7;" xml:space="preserve">
<style type="text/css">
	.st0{clip-path:url(#SVGID_00000124847866279724568030000007273578298245654665_);}
	.st1{fill:none;stroke:#FFFFFF;stroke-width:40;stroke-linecap:round;stroke-linejoin:round;stroke-miterlimit:13.3333;}
	.st2{fill:none;stroke:#FAC312;stroke-width:40;stroke-linecap:round;stroke-linejoin:round;stroke-miterlimit:13.3333;}
</style>
<g id="g690" transform="matrix(1.3333333,0,0,-1.3333333,0,682.66667)">
	<g id="g692">
		<g>
			<defs>
				<rect id="SVGID_1_" x="-85.3" y="-85.3" width="682.7" height="682.7"/>
			</defs>
			<clipPath id="SVGID_00000101105573940073803390000006971837233233034931_">
				<use xlink:href="#SVGID_1_"  style="overflow:visible;"/>
			</clipPath>
			<g id="g694" style="clip-path:url(#SVGID_00000101105573940073803390000006971837233233034931_);">
				<g id="g700" transform="translate(64.3838,368.1675)">
					<path id="path702" class="st1" d="M0,0c-6.2-34.4-10.7-72.4-10.7-113c0-40.4,4.2-76.4,10.3-110.3"/>
				</g>
				<g id="g704" transform="translate(435.4214,424.8628)">
					<path id="path706" class="st1" d="M0,0c-11.5,45.2-22.6,72-22.6,72h-313.6c0,0-11.3-27.8-22.7-72.1"/>
				</g>
				<g id="g708" transform="translate(447.729,144.7549)">
					<path id="path710" class="st1" d="M0,0c6.1,34,10.6,70,10.6,110.4c0,41-4.3,77.8-10.5,112.4"/>
				</g>
				<g id="g712" transform="translate(76.2598,87.5464)">
					<path id="path714" class="st1" d="M0,0c11.6-45.1,22.9-72.4,22.9-72.4h313.6c0,0,11.9,26.9,23.5,72.4"/>
				</g>
				<g id="g716" transform="translate(256.2808,87.5464)">
					<path id="path718" class="st1" d="M0,0v-72.5"/>
				</g>
				<g id="g720" transform="translate(256.2808,367.606)">
					<path id="path722" class="st1" d="M0,0v-222.9"/>
				</g>
				<g id="g724" transform="translate(256.2808,497)">
					<path id="path726" class="st1" d="M0,0v-72.2"/>
				</g>
				<g id="g728" transform="translate(168.2871,87.5464)">
					<path id="path730" class="st1" d="M0,0c3.1-24.3,7.1-47.6,11.9-72.4"/>
				</g>
				<g id="g732" transform="translate(160.9204,367.5967)">
					<path id="path734" class="st1" d="M0,0c-4.2-61.7-5.8-136.6,1.7-222.8"/>
				</g>
				<g id="g736" transform="translate(175.5483,496.8574)">
					<path id="path738" class="st1" d="M0,0c0,0-5-26.2-9.8-72.1"/>
				</g>
				<g id="g740" transform="translate(345.5962,87.5464)">
					<path id="path742" class="st1" d="M0,0c-3.1-24.1-7-47.6-11.8-72.2"/>
				</g>
				<g id="g744" transform="translate(352.9297,367.5225)">
					<path id="path746" class="st1" d="M0,0c4.2-61.8,5.9-136-1.6-222.7"/>
				</g>
				<g id="g748" transform="translate(338.3936,497)">
					<path id="path750" class="st1" d="M0,0c0,0,4.9-25.7,9.7-72.2"/>
				</g>
				<path id="path752" class="st2" d="M460.7,367.6H51.3v57.2h409.5L460.7,367.6z"/>
				<path id="path754" class="st2" d="M460.7,87.6H51.3v57.2h409.5L460.7,87.6z"/>
			</g>
			<use xlink:href="#SVGID_1_"  style="overflow:visible;fill:none;stroke:#FFFFFF;stroke-miterlimit:10;"/>
		</g>
	</g>
</g>
</svg>
