<?xml version="1.0" encoding="utf-8"?>
<!-- Generator: Adobe Illustrator 28.1.0, SVG Export Plug-In . SVG Version: 6.00 Build 0)  -->
<svg version="1.1" id="Capa_1" xmlns="http://www.w3.org/2000/svg" xmlns:xlink="http://www.w3.org/1999/xlink" x="0px" y="0px"
	 viewBox="0 0 512 512" style="enable-background:new 0 0 512 512;" xml:space="preserve">
<style type="text/css">
	.st0{fill:none;stroke:#FFFFFF;stroke-width:29.9997;stroke-linecap:round;stroke-linejoin:round;stroke-miterlimit:9.9999;}
	.st1{fill:none;stroke:#FFFFFF;stroke-width:30;stroke-linecap:round;stroke-linejoin:round;stroke-miterlimit:10;}
	.st2{fill:none;stroke:#FAC312;stroke-width:30;stroke-linecap:round;stroke-linejoin:round;stroke-miterlimit:10;}
</style>
<g>
	<g>
		<g>
			
				<rect x="115.2" y="16.5" transform="matrix(0.7071 -0.7071 0.7071 0.7071 -18.0234 128.4964)" class="st0" width="61.9" height="139"/>
			
				<rect x="218.6" y="55.1" transform="matrix(0.7071 -0.7071 0.7071 0.7071 23.5688 228.9146)" class="st0" width="139" height="61.9"/>
			<line class="st1" x1="118.8" y1="15" x2="315.4" y2="15"/>
			<path class="st1" d="M75.1,58.7H44.3C28.1,58.7,15,71.9,15,88v307.8c0,16.2,13.1,29.3,29.3,29.3h345.6
				c16.2,0,29.3-13.1,29.3-29.3V88c0-16.2-13.1-29.3-29.3-29.3h-30.8"/>
		</g>
		<g>
			<path class="st1" d="M421,120.6h46.7c16.2,0,29.3,13.1,29.3,29.3v317.8c0,16.2-13.1,29.3-29.3,29.3H111.2
				c-16.2,0-29.3-13.1-29.3-29.3v-37.1"/>
		</g>
	</g>
	<line class="st2" x1="217.1" y1="204.2" x2="217.1" y2="204.2"/>
	<line class="st2" x1="217.1" y1="277" x2="217.1" y2="277"/>
	<line class="st2" x1="217.1" y1="349.8" x2="217.1" y2="349.8"/>
	<path class="st2" d="M317.1,304.2L317.1,304.2c-23,0-41.6-18.6-41.6-41.6v-48.4h83.2v48.4C358.7,285.6,340.1,304.2,317.1,304.2z"/>
</g>
</svg>
